<svg width="11" height="17" viewBox="0 0 11 17" fill="none" xmlns="http://www.w3.org/2000/svg">
<path d="M1.25 16.75L3.35 6.175L2 6.7V9.25H0.5V5.725L4.2875 4.1125C4.4625 4.0375 4.64687 3.99375 4.84062 3.98125C5.03437 3.96875 5.21875 3.99375 5.39375 4.05625C5.56875 4.11875 5.73438 4.20625 5.89062 4.31875C6.04688 4.43125 6.175 4.575 6.275 4.75L7.025 5.95C7.35 6.475 7.79063 6.90625 8.34688 7.24375C8.90313 7.58125 9.5375 7.75 10.25 7.75V9.25C9.375 9.25 8.59375 9.06875 7.90625 8.70625C7.21875 8.34375 6.63125 7.88125 6.14375 7.31875L5.675 9.625L7.25 11.125V16.75H5.75V11.875L4.175 10.675L2.825 16.75H1.25ZM6.125 3.625C5.7125 3.625 5.35938 3.47813 5.06563 3.18438C4.77187 2.89062 4.625 2.5375 4.625 2.125C4.625 1.7125 4.77187 1.35938 5.06563 1.06563C5.35938 0.771875 5.7125 0.625 6.125 0.625C6.5375 0.625 6.89063 0.771875 7.18438 1.06563C7.47813 1.35938 7.625 1.7125 7.625 2.125C7.625 2.5375 7.47813 2.89062 7.18438 3.18438C6.89063 3.47813 6.5375 3.625 6.125 3.625Z" fill="#1C1B1F"/>
</svg>
