<svg width="32" height="32" viewBox="0 0 32 32" fill="none" xmlns="http://www.w3.org/2000/svg">
<rect y="0.216614" width="31.5668" height="31.5668" rx="15.7834" fill="#71BBB2"/>
<path d="M13.4854 16.8839L8.88916 21.48C8.6939 21.6753 8.6939 21.9919 8.88916 22.1872L9.59626 22.8943C9.79153 23.0895 10.1081 23.0895 10.3034 22.8943L14.8996 18.2981" stroke="black" stroke-width="1.5"/>
<path d="M21.7934 17.4142C19.7431 19.4645 16.419 19.4645 14.3687 17.4142C12.3185 15.364 12.3185 12.0398 14.3687 9.98958C16.419 7.93933 19.7431 7.93933 21.7934 9.98958C23.8436 12.0398 23.8436 15.364 21.7934 17.4142Z" stroke="black" stroke-width="1.5"/>
<path d="M20.1317 11.2961C21.1937 12.3361 21.6162 13.7193 20.8389 15.185" stroke="black"/>
</svg>
