<svg width="28" height="24" viewBox="0 0 28 24" fill="none" xmlns="http://www.w3.org/2000/svg">
<path d="M17.3333 18.6667V21.3333C17.3333 22.0406 17.0524 22.7189 16.5523 23.219C16.0522 23.719 15.3739 24 14.6667 24H2.66667C1.95942 24 1.28115 23.719 0.781048 23.219C0.280951 22.7189 0 22.0406 0 21.3333V2.66667C0 1.95942 0.280951 1.28115 0.781048 0.781048C1.28115 0.280951 1.95942 0 2.66667 0H14.6667C15.3739 0 16.0522 0.280951 16.5523 0.781048C17.0524 1.28115 17.3333 1.95942 17.3333 2.66667V5.33333H14.6667V2.66667H2.66667V21.3333H14.6667V18.6667H17.3333ZM20.6667 4.66667L18.7813 6.552L22.896 10.6667H9.33333V13.3333H22.896L18.7813 17.448L20.6667 19.3333L28 12L20.6667 4.66667Z" fill="black"/>
</svg>
