<svg width="24" height="30" viewBox="0 0 24 30" fill="none" xmlns="http://www.w3.org/2000/svg">
<path d="M12 24C10.6 24 9.2625 24.2188 7.9875 24.6563C6.7125 25.0938 5.55 25.75 4.5 26.625V27H19.5V26.625C18.45 25.75 17.2875 25.0938 16.0125 24.6563C14.7375 24.2188 13.4 24 12 24ZM12 21C13.725 21 15.3375 21.2625 16.8375 21.7875C18.3375 22.3125 19.725 23.05 21 24V3H3V24C4.275 23.05 5.6625 22.3125 7.1625 21.7875C8.6625 21.2625 10.275 21 12 21ZM12 15C11.375 15 10.8438 14.7812 10.4062 14.3438C9.96875 13.9062 9.75 13.375 9.75 12.75C9.75 12.125 9.96875 11.5938 10.4062 11.1562C10.8438 10.7188 11.375 10.5 12 10.5C12.625 10.5 13.1562 10.7188 13.5938 11.1562C14.0312 11.5938 14.25 12.125 14.25 12.75C14.25 13.375 14.0312 13.9062 13.5938 14.3438C13.1562 14.7812 12.625 15 12 15ZM3 30C2.175 30 1.46875 29.7063 0.88125 29.1188C0.29375 28.5313 0 27.825 0 27V3C0 2.175 0.29375 1.46875 0.88125 0.88125C1.46875 0.29375 2.175 0 3 0H21C21.825 0 22.5312 0.29375 23.1188 0.88125C23.7063 1.46875 24 2.175 24 3V27C24 27.825 23.7063 28.5313 23.1188 29.1188C22.5312 29.7063 21.825 30 21 30H3ZM12 18C13.45 18 14.6875 17.4875 15.7125 16.4625C16.7375 15.4375 17.25 14.2 17.25 12.75C17.25 11.3 16.7375 10.0625 15.7125 9.0375C14.6875 8.0125 13.45 7.5 12 7.5C10.55 7.5 9.3125 8.0125 8.2875 9.0375C7.2625 10.0625 6.75 11.3 6.75 12.75C6.75 14.2 7.2625 15.4375 8.2875 16.4625C9.3125 17.4875 10.55 18 12 18Z" fill="black"/>
</svg>
