<svg width="18" height="19" viewBox="0 0 18 19" fill="none" xmlns="http://www.w3.org/2000/svg">
<mask id="mask0_187_808" style="mask-type:alpha" maskUnits="userSpaceOnUse" x="0" y="0" width="18" height="19">
<rect y="0.5" width="18" height="18" fill="#D9D9D9"/>
</mask>
<g mask="url(#mask0_187_808)">
<path d="M5.25 17.75L7.35 7.175L6 7.7V10.25H4.5V6.725L8.2875 5.1125C8.4625 5.0375 8.64687 4.99375 8.84062 4.98125C9.03437 4.96875 9.21875 4.99375 9.39375 5.05625C9.56875 5.11875 9.73438 5.20625 9.89062 5.31875C10.0469 5.43125 10.175 5.575 10.275 5.75L11.025 6.95C11.35 7.475 11.7906 7.90625 12.3469 8.24375C12.9031 8.58125 13.5375 8.75 14.25 8.75V10.25C13.375 10.25 12.5938 10.0688 11.9062 9.70625C11.2188 9.34375 10.6312 8.88125 10.1438 8.31875L9.675 10.625L11.25 12.125V17.75H9.75V12.875L8.175 11.675L6.825 17.75H5.25ZM10.125 4.625C9.7125 4.625 9.35938 4.47813 9.06563 4.18438C8.77187 3.89062 8.625 3.5375 8.625 3.125C8.625 2.7125 8.77187 2.35938 9.06563 2.06563C9.35938 1.77188 9.7125 1.625 10.125 1.625C10.5375 1.625 10.8906 1.77188 11.1844 2.06563C11.4781 2.35938 11.625 2.7125 11.625 3.125C11.625 3.5375 11.4781 3.89062 11.1844 4.18438C10.8906 4.47813 10.5375 4.625 10.125 4.625Z" fill="#1C1B1F"/>
</g>
</svg>
